<?xml version="1.0" standalone="no"?>
<!DOCTYPE svg PUBLIC "-//W3C//DTD SVG 20010904//EN"
 "http://www.w3.org/TR/2001/REC-SVG-20010904/DTD/svg10.dtd">
<svg version="1.0" xmlns="http://www.w3.org/2000/svg"
 width="1024.000000pt" height="1024.000000pt" viewBox="0 0 1024.000000 1024.000000"
 preserveAspectRatio="xMidYMid meet">

<g transform="translate(0.000000,1024.000000) scale(0.100000,-0.100000)"
fill="#000000" stroke="none">
<path d="M4950 9050 c-142 -44 -215 -115 -260 -253 -6 -21 -15 -37 -18 -35 -4
2 -33 16 -65 31 -190 90 -382 89 -447 -2 -79 -112 -81 -359 -3 -506 97 -182
100 -203 45 -415 -54 -207 -66 -296 -59 -444 14 -340 192 -598 532 -772 l80
-41 8 -52 c9 -69 51 -193 83 -247 14 -24 44 -60 66 -79 l41 -34 -46 -138 c-47
-141 -71 -260 -83 -416 -4 -48 -10 -90 -14 -92 -12 -8 -55 100 -125 315 -103
315 -152 407 -281 531 -120 114 -269 198 -429 242 -186 51 -515 65 -515 22 0
-21 182 -414 228 -492 169 -287 452 -473 757 -498 54 -5 104 -15 125 -26 71
-36 129 -109 155 -194 16 -51 51 -249 60 -340 13 -124 16 -531 6 -750 -11
-246 -15 -286 -58 -555 -34 -219 -40 -312 -20 -332 22 -21 197 -32 369 -23
127 7 133 9 160 35 25 26 28 35 28 97 0 58 -6 114 -24 218 -2 11 -16 68 -30
127 -28 116 -75 337 -102 488 -26 142 -24 317 3 405 30 94 97 185 165 225 29
16 63 30 75 30 40 0 187 51 262 91 232 124 348 275 546 712 67 148 68 147 -38
147 -266 0 -497 -72 -672 -210 -156 -125 -219 -239 -293 -530 -48 -188 -118
-370 -142 -370 -6 0 -10 90 -10 228 1 451 33 745 107 975 22 67 30 81 62 102
71 44 127 134 165 265 l16 55 73 23 c262 82 496 260 609 463 88 160 123 310
133 577 8 201 10 217 35 285 15 39 46 86 102 149 138 159 175 228 163 301 -18
118 -119 205 -255 222 -44 5 -67 2 -110 -14 -30 -12 -55 -21 -56 -21 -1 0 -4
35 -7 78 -3 42 -13 98 -22 124 -20 57 -78 125 -143 167 -65 42 -191 74 -257
66 -67 -9 -159 -32 -199 -52 l-33 -16 -67 55 c-100 83 -166 113 -251 114 -42
1 -92 -5 -125 -16z m478 -356 c105 -35 202 -94 282 -173 95 -93 140 -194 140
-312 l0 -41 40 32 c46 36 94 130 104 203 4 26 10 47 14 47 16 0 42 -60 42 -94
0 -96 -77 -191 -288 -360 -205 -163 -289 -246 -323 -317 -42 -87 -44 -116 -10
-190 58 -127 74 -203 75 -339 1 -135 -12 -205 -51 -283 -28 -57 -86 -123 -113
-130 -25 -6 -25 -5 5 38 30 45 60 125 74 196 13 72 6 250 -13 324 -56 210
-235 424 -553 658 -163 121 -231 193 -264 278 -32 84 -32 184 -2 251 19 43 86
118 105 118 4 0 -3 -21 -14 -47 -18 -39 -22 -66 -21 -139 1 -105 20 -158 80
-232 43 -52 45 -51 67 69 30 162 81 276 155 348 118 115 300 152 469 95z"/>
<path d="M5168 8617 c-26 -8 -55 -20 -65 -27 -49 -38 -73 -66 -73 -87 0 -25
33 -98 49 -108 5 -3 22 11 37 30 35 46 92 79 170 99 57 15 114 21 114 13 0 -2
-9 -29 -19 -59 -25 -72 -47 -105 -82 -124 -33 -16 -141 -19 -171 -3 -11 6 -22
8 -25 6 -9 -10 134 -119 232 -176 175 -102 222 -117 341 -106 l74 7 11 42 c18
66 6 157 -28 218 -28 49 -53 72 -53 49 0 -22 -53 -91 -84 -110 -38 -24 -118
-43 -141 -35 -14 6 -13 10 7 33 13 14 37 44 53 66 15 22 43 56 62 76 34 36 34
37 19 67 -19 37 -80 86 -143 114 -60 27 -213 35 -285 15z"/>
<path d="M4939 8427 c-56 -92 -112 -277 -101 -330 2 -9 38 -41 80 -69 110 -73
229 -176 338 -291 76 -81 94 -96 94 -77 0 45 47 116 140 211 52 53 113 110
135 128 l40 31 -35 -7 c-19 -5 -69 -8 -110 -7 -62 0 -89 6 -153 33 -195 83
-347 229 -389 374 l-13 46 -26 -42z"/>
<path d="M4770 3373 c-14 -3 -31 -10 -37 -15 -17 -14 -16 -83 2 -145 8 -28 15
-75 14 -104 -1 -35 6 -70 20 -99 33 -72 28 -128 -19 -214 -72 -132 -101 -248
-101 -406 0 -146 39 -292 138 -520 82 -188 86 -209 79 -387 -3 -84 -2 -153 3
-153 18 0 121 120 183 215 136 205 241 450 283 660 16 79 17 253 2 332 -16 85
-65 203 -116 278 -27 41 -29 49 -25 116 2 39 9 80 15 91 14 27 14 127 0 171
-9 26 -8 42 4 76 20 56 19 67 -5 91 -19 19 -32 20 -217 19 -109 -1 -209 -4
-223 -6z"/>
</g>
</svg>
